<?xml version="1.0" ?><!DOCTYPE svg  PUBLIC '-//W3C//DTD SVG 1.1//EN'  'http://www.w3.org/Graphics/SVG/1.1/DTD/svg11.dtd'><svg width="100px" height="100px" viewBox="0 0 100 100" style="fill-rule:evenodd;clip-rule:evenodd;stroke-linejoin:round;stroke-miterlimit:2;" version="1.1" xml:space="preserve" xmlns="http://www.w3.org/2000/svg" xmlns:serif="http://www.serif.com/" xmlns:xlink="http://www.w3.org/1999/xlink"><g id="Icon"><path d="M46.652,55.889c0.062,0.054 0.132,0.101 0.209,0.14c0.307,0.153 0.944,0.207 1.086,0.217c1.011,0.51 1.962,1.109 2.815,1.678c0.13,0.087 0.542,0.185 0.773,0.235c1.446,1.358 3.93,2.704 6.098,2.343c0.898,-0.15 1.768,-0.573 2.632,-1.032c0.694,-0.367 1.384,-0.761 2.106,-0.942c1.286,-0.321 2.249,-1.112 3.307,-1.671c0.19,0.012 0.558,0.029 0.701,-0.007c0.576,-0.144 1.77,-0.926 2.247,-1.307c0.681,-0.546 1.358,-1.031 2.05,-1.585c0.134,-0.107 0.485,-0.415 0.616,-0.531c0.042,-0.03 0.082,-0.064 0.119,-0.102c0.122,-0.122 0.194,-0.237 0.237,-0.335c0.151,-0.175 0.242,-0.403 0.242,-0.652c0,-0.552 -0.448,-1 -1,-1c-0.609,0 -1.848,-0.25 -2.442,-0.547c-0.447,-0.223 -1.029,-0.237 -1.648,-0.133c-0.224,0.038 -0.454,0.088 -0.678,0.119c-0.137,0.019 -0.27,0.068 -0.377,0.014c-0.718,-0.359 -1.373,-0.934 -2.088,-1.172c-0.603,-0.201 -1.275,-0.392 -1.906,-0.572c-0.132,-0.038 -0.41,-0.032 -0.583,-0.023c-0.301,-0.126 -0.616,-0.209 -0.937,-0.276c-0.376,-0.078 -0.763,-0.117 -1.104,-0.287c-0.362,-0.181 -0.771,-0.433 -1.209,-0.604c-0.62,-0.241 -1.286,-0.333 -1.978,-0.103c-1.896,0.632 -3.412,1.818 -4.889,3.085c-1.178,1.01 -2.33,2.075 -3.697,2.857c-0.965,0.225 -2.035,0.418 -3.071,0.7c0.603,-1.16 1.201,-2.329 1.731,-3.512c2.859,-0.943 5.023,-2.898 7.395,-4.662c0.018,-0.003 0.035,-0.007 0.052,-0.01c0.161,-0.035 0.338,-0.111 0.51,-0.237c0.086,-0.063 0.233,-0.2 0.317,-0.28c0.42,-0.12 0.964,-0.188 1.373,-0.051c0.783,0.261 1.76,1.056 2.75,1.509c0.949,0.435 1.909,0.592 2.784,0.242c2.01,-0.804 3.866,-1.883 5.762,-2.831c0.877,-0.438 1.786,-1.713 2.404,-2.331c0.359,-0.359 0.759,-0.646 1.123,-0.955c0.487,-0.413 0.915,-0.863 1.208,-1.449c0.372,-0.744 1.104,-1.436 1.621,-2.169c0.326,-0.461 0.578,-0.938 0.711,-1.432c0.191,-0.117 0.287,-0.261 0.343,-0.362c0.042,-0.075 0.339,-1.492 -0.96,-1.492c-0.12,0 -0.235,0.021 -0.341,0.06c-0.208,0.029 -0.49,0.07 -0.534,0.085c-0.386,0.128 -0.761,0.253 -1.119,0.373c-0.612,0.204 -1.147,0.624 -1.733,0.859c-0.664,0.266 -1.337,0.319 -1.995,0.539c-1.847,0.615 -3.854,0.493 -5.722,1.1c-0.115,0.004 -0.973,0.039 -1.3,0.097c-0.291,0.051 -0.503,0.164 -0.64,0.268c-0.076,0.021 -0.33,0.089 -0.474,0.129c-0.253,0.071 -0.489,0.167 -0.678,0.293c-1.283,0.856 -3.031,1.369 -4.194,2.144c-1.083,0.722 -2.078,2.083 -2.526,3.277c-0.104,0.278 -0.314,0.904 -0.312,1.31c-1.573,1.208 -3.065,2.483 -4.808,3.382c0.044,-0.134 0.086,-0.269 0.127,-0.403c0.803,-2.632 0.982,-5.4 1.862,-8.004c0.402,-1.19 0.913,-2.347 1.454,-3.496c0.008,-0.004 0.015,-0.007 0.022,-0.011c1.061,-0.561 2.265,-0.892 3.44,-1.217c0.228,0.02 0.453,-0.041 0.638,-0.164c0.291,0.05 0.688,0.184 0.75,0.205c0.137,0.119 0.328,0.226 0.583,0.268c0.191,0.032 0.727,-0.016 0.872,-0.03c0.282,0.06 0.58,0.089 0.863,0.144c0.106,0.136 0.262,0.277 0.535,0.368c0.353,0.118 0.778,0.112 1.213,0.046c0.182,-0.028 0.503,-0.064 0.576,-0.073c0.435,0.212 0.866,0.358 1.427,0.245c1.055,-0.211 2.564,-0.868 3.386,-1.485c0.483,-0.362 0.855,-0.941 1.353,-1.273c1.159,-0.773 2.586,-1.782 3.489,-2.91c0.241,-0.302 0.388,-0.637 0.5,-0.983c0.08,-0.246 0.107,-0.509 0.265,-0.72c0.41,-0.547 1.021,-1.007 1.491,-1.477c0.949,-0.949 1.999,-1.63 2.46,-2.947c0.058,-0.053 0.38,-0.345 0.546,-0.507c0.395,-0.387 0.64,-0.836 0.643,-1.347c-0,-0.003 -0,-0.005 -0,-0.008c-0,-0.551 -0.448,-1 -1,-1c-1.844,0 -3.647,0.784 -5.416,1.138c-0.213,0.043 -0.446,-0.02 -0.674,-0.04c-0.329,-0.029 -0.654,-0.025 -0.957,0.051c-0.688,0.172 -1.544,0.441 -2.136,0.715c-0.264,0.123 -0.523,0.328 -0.763,0.575c-0.186,0.192 -0.355,0.423 -0.535,0.558c-0.489,0.366 -1.168,0.676 -1.748,1.043c-0.529,0.335 -0.985,0.717 -1.28,1.159c-0.156,0.234 -0.345,0.605 -0.557,0.949c-0.067,0.11 -0.187,0.265 -0.255,0.349c-0.183,-0.034 -0.708,-0.132 -1.014,-0.202c-0.669,-0.152 -1.292,-0.15 -1.704,0.056c-1.747,0.874 -2.046,1.781 -2.87,3.43c-0.189,0.377 -0.458,0.71 -0.707,1.051c-0.215,0.295 -0.419,0.596 -0.586,0.915c-0.525,0.148 -1.055,0.298 -1.578,0.465c0.531,-1.132 1.032,-2.277 1.427,-3.456c0.021,-0.018 0.042,-0.038 0.062,-0.058c0.054,-0.053 0.1,-0.112 0.139,-0.173c0.501,-0.205 1.042,-0.541 1.377,-0.813c0.102,-0.023 0.368,-0.085 0.519,-0.133c0.458,-0.145 0.846,-0.407 1.08,-0.875c0.088,-0.175 0.334,-0.395 0.359,-0.453c0.508,-0.506 1.154,-1.056 1.712,-1.453c0.274,-0.196 0.499,-0.448 0.707,-0.721c0.151,-0.199 0.272,-0.428 0.48,-0.567c0.569,-0.38 1.01,-0.631 1.395,-1.209c0.267,-0.4 0.353,-0.783 0.37,-1.17c0.011,-0.24 -0.061,-0.482 0.027,-0.746c0.331,-0.996 0.725,-1.891 0.88,-2.971c0.353,-2.471 -0.798,-5.246 -1.533,-7.449c-0.133,-0.4 -0.051,-0.856 -0.035,-1.293c0.018,-0.496 -0.007,-0.977 -0.151,-1.41c-0.092,-0.277 -0.274,-0.593 -0.472,-0.911c-0.117,-0.189 -0.296,-0.54 -0.317,-0.581c-0.01,-0.284 -0.139,-0.539 -0.34,-0.715c-0.183,-0.209 -0.452,-0.341 -0.752,-0.341c-0.389,0 -0.79,0.184 -1.111,0.592c-0.197,0.251 -0.518,0.867 -0.555,0.94c-1.123,1.124 -2.102,2.189 -3.013,3.707c-1.371,2.285 -2.268,4.493 -3.074,6.91c-0.171,0.514 -0.534,1.045 -0.784,1.546c-0.185,0.37 -0.256,0.839 -0.255,1.34c0,0.413 0.076,0.859 -0.008,1.195c-0.481,1.925 0.061,4.131 1.071,5.644c0.159,0.24 0.198,0.637 0.29,0.971c0.033,0.117 0.069,0.23 0.109,0.337c-0.305,0.95 -0.681,1.876 -1.089,2.791c-0.436,-0.883 -1.051,-1.621 -1.953,-2.297c-0.01,-0.085 -0.03,-0.17 -0.062,-0.252c0.054,-0.116 0.092,-0.26 0.099,-0.439c0.005,-0.128 -0.015,-0.251 -0.054,-0.365c-0.05,-0.322 -0.206,-1.302 -0.315,-1.607c-0.396,-1.114 -0.448,-2.541 -0.648,-3.687c-0.248,-1.425 -0.66,-2.549 -1.4,-3.757c-0.395,-0.646 -1.047,-1.141 -1.721,-1.613c-0.441,-0.309 -0.903,-0.595 -1.162,-1.017c-0.346,-0.565 -0.636,-1.134 -0.978,-1.619c-0.566,-0.802 -1.254,-1.414 -2.356,-1.617c-0.167,-0.15 -0.386,-0.245 -0.629,-0.254c-0.551,-0.022 -1.016,0.409 -1.037,0.96c-0.012,0.289 -0.236,0.897 -0.371,1.255c-0.106,0.283 -0.147,0.611 -0.153,0.953c-0.004,0.241 0.035,0.494 -0.025,0.7c-0.207,0.709 -0.194,1.486 -0.148,2.273c0.033,0.582 0.091,1.169 -0.022,1.716c-0.122,0.591 -0.412,1.324 -0.563,2.023c-0.14,0.644 -0.167,1.267 -0.013,1.794c0.159,0.548 0.155,1.166 0.307,1.691c0.11,0.375 0.327,0.679 0.599,0.95c0.143,0.143 0.342,0.243 0.428,0.433c0.104,0.23 0.339,0.623 0.591,0.886c0.191,0.2 0.403,0.337 0.591,0.408c0.67,0.252 1.311,0.254 1.943,0.182c0.565,-0.065 1.116,-0.258 1.69,-0.042c0.411,0.155 0.97,0.177 1.386,0.333c0.461,0.174 1.017,0.564 1.586,0.76c0.221,0.076 0.443,0.129 0.665,0.153c0.032,0.027 0.067,0.052 0.103,0.075c1.47,0.939 2.052,2.021 2.378,3.656c-0.698,1.451 -1.383,2.904 -1.892,4.409c-0.319,0.946 -0.548,1.913 -0.747,2.887c-0.197,-0.524 -0.428,-1.041 -0.711,-1.553c-0.019,-0.034 -0.039,-0.067 -0.061,-0.098l-0,-0.164c-0,-0.693 -0.218,-1.417 -0.479,-1.938c-0.214,-0.428 -0.865,-1.031 -1.212,-1.379c-0.684,-0.683 -1.137,-2.201 -1.584,-3.095c-0.815,-1.63 -2.189,-2.892 -3.602,-3.834c-0.763,-0.508 -1.336,-1.135 -2.196,-1.421c-0.201,-0.067 -0.421,-0.093 -0.651,-0.084c-0.161,0.007 -0.477,0.042 -0.522,0.047c-0.702,-0.139 -1.647,-0.266 -2.238,-0.562c-0.375,-0.187 -0.856,-0.223 -1.359,-0.134c-0.348,0.061 -0.71,0.215 -0.952,0.215c-0.048,0 -0.095,0.004 -0.14,0.01c-0.046,-0.006 -0.093,-0.01 -0.14,-0.01c-0.552,0 -1,0.448 -1,1c0,0.717 0.47,1.617 0.698,2.348c0.043,0.14 0.008,0.308 0.006,0.471c-0.004,0.271 0.011,0.537 0.072,0.779c0.28,1.122 0.994,2.809 1.629,3.761c0.162,0.243 0.432,0.46 0.788,0.607c0.232,0.096 0.531,0.148 0.763,0.211c0.033,0.09 0.072,0.183 0.103,0.236c0.123,0.206 0.287,0.358 0.488,0.458c0.976,0.488 1.944,1.051 2.903,1.531c0.502,0.251 0.934,0.727 1.325,1.118c0.155,0.154 0.213,0.328 0.323,0.459c0.205,0.243 0.462,0.443 0.887,0.549c1.511,0.378 3.142,0.476 4.708,0.493c0.636,1.374 0.911,2.798 1.265,4.284c-0.075,0.291 -0.156,0.581 -0.244,0.869c-0.516,1.694 -1.285,3.35 -2.114,4.984c-0.838,-0.534 -1.728,-0.979 -2.559,-1.535l0,-0.558c0,-0.175 -0.099,-0.63 -0.27,-1.071c-0.175,-0.451 -0.425,-0.877 -0.582,-1.034c-0.329,-0.328 -0.478,-0.849 -0.619,-1.383c-0.195,-0.738 -0.33,-1.518 -0.537,-2.141c-0.165,-0.493 -0.668,-1.018 -0.956,-1.45c-0.159,-0.238 -0.341,-0.42 -0.537,-0.587c-0.139,-0.119 -0.297,-0.216 -0.427,-0.39c-0.155,-0.206 -0.27,-0.481 -0.414,-0.714c-0.187,-0.301 -0.408,-0.555 -0.67,-0.73c-0.956,-0.637 -2.201,-0.922 -3.277,-1.46c-2.016,-1.008 -4.045,-2.385 -6.003,-3.037c-0.27,-0.09 -0.631,-0.129 -1.029,-0.107c-0.655,0.036 -1.44,0.228 -1.877,0.368c-0.055,-0.009 -0.238,-0.042 -0.335,-0.062c-0.184,-0.039 -0.362,-0.064 -0.524,-0.064c-0.033,-0 -0.065,0.001 -0.098,0.004c-0.031,-0.003 -0.061,-0.004 -0.088,-0.004c-0.552,-0 -1,0.448 -1,1c-0,0.343 0.173,0.647 0.438,0.827c0.117,0.225 0.574,1.106 0.617,1.279c0.631,2.526 1.919,4.708 3.4,6.93c0.7,1.05 1.605,1.725 2.455,2.576c0.767,0.767 1.203,1.664 2.11,2.269c0.329,0.219 0.736,0.373 1.174,0.49c0.449,0.119 0.94,0.192 1.34,0.352c0.627,0.251 1.142,0.63 1.832,0.716c1.092,0.137 2.564,0.244 3.628,-0.022c0.382,-0.095 0.763,-0.3 1.135,-0.337c0.897,0.593 1.863,1.058 2.751,1.656c-0.556,1.061 -1.107,2.116 -1.6,3.169c-1.094,2.333 -2.464,4.53 -3.749,6.753c-0.791,-0.076 -1.561,-0.219 -2.332,-0.443c-0.029,-0.12 -0.064,-0.24 -0.105,-0.36c-0.099,-0.293 -0.242,-0.585 -0.302,-0.885c-0.064,-0.323 -0.001,-0.715 0.01,-1.086c0.012,-0.424 -0.019,-0.83 -0.135,-1.178c-0.088,-0.265 -0.234,-0.473 -0.419,-0.646c-0.102,-0.096 -0.316,-0.248 -0.383,-0.295c-0.212,-0.317 -0.384,-0.568 -0.503,-0.923c-0.157,-0.471 -0.537,-0.894 -1.036,-1.238c-0.403,-0.277 -0.911,-0.486 -1.163,-0.738c-1.281,-1.281 -2.387,-2.678 -4.026,-3.224c-1.141,-0.38 -2.261,-0.289 -3.429,-0.581c-0.387,-0.096 -0.761,-0.092 -1.118,-0.083c-0.09,0.003 -0.179,0.005 -0.265,-0c-0.037,-0.003 -0.078,0.005 -0.11,-0.026c-0.094,-0.095 -0.257,-0.215 -0.491,-0.303c-0.178,-0.067 -0.605,-0.18 -0.792,-0.228c-0.173,-0.143 -0.394,-0.228 -0.635,-0.228c-0.552,-0 -1,0.448 -1,1c-0,0.258 0.099,0.625 0.474,0.889c0.002,0.001 0.003,0.003 0.005,0.004c0.366,0.366 0.473,0.868 0.652,1.321c0.203,0.513 0.45,0.993 0.839,1.382c0.094,0.094 0.314,0.197 0.493,0.27c0.391,0.831 0.763,1.835 1.246,2.561c0.663,0.993 1.608,2.004 2.409,2.808c0.027,0.078 0.143,0.412 0.198,0.55c0.416,1.039 1.65,2.197 2.663,2.535c0.198,0.066 0.661,0.082 0.805,0.086c0.566,0.269 1.499,0.597 2.417,0.702c0.72,0.082 1.427,0.02 1.998,-0.231c0.112,-0.009 0.448,-0.036 0.745,-0.082c0.065,0.038 0.136,0.069 0.211,0.092c0.673,0.205 1.343,0.357 2.024,0.461c-0.875,1.629 -1.653,3.294 -2.198,5.058c-0.228,-0.047 -0.461,-0.078 -0.693,-0.096c-0.1,-0.084 -0.222,-0.163 -0.365,-0.227c-0.141,-0.062 -0.431,-0.15 -0.49,-0.168c-0.654,-0.323 -1.341,-0.546 -1.953,-1.006c-0.393,-0.294 -0.68,-0.703 -1.071,-0.964c-0.121,-0.08 -0.442,-0.221 -0.609,-0.292c-0.217,-0.404 -0.541,-0.93 -0.9,-1.297c-0.275,-0.28 -0.578,-0.48 -0.873,-0.578c-0.754,-0.251 -1.556,-0.122 -2.325,0.248c-0.853,0.41 -1.667,1.13 -2.251,1.598c-1.343,1.074 -2.315,2.212 -3.531,3.429c-0.304,0.303 -0.61,0.756 -0.966,0.993c-0.069,0.046 -0.193,0.126 -0.328,0.215c-0.487,0.066 -0.863,0.485 -0.863,0.99c-0,0.379 0.157,0.687 0.475,0.916c0.044,0.031 0.115,0.063 0.198,0.095c0.044,0.019 0.093,0.036 0.147,0.05c0.215,0.068 0.457,0.126 0.545,0.146c0.597,0.276 1.292,0.321 1.89,0.62c0.48,0.24 1.052,0.296 1.654,0.264c0.502,-0.026 1.034,-0.165 1.46,-0.023c0.299,0.099 0.636,0.12 0.985,0.104c0.205,-0.009 0.419,-0.071 0.6,-0.011c1.529,0.51 2.81,1.138 4.547,0.559c0.226,-0.075 0.465,-0.222 0.687,-0.409c0.157,-0.133 0.303,-0.295 0.425,-0.384c0.191,-0.14 0.392,-0.353 0.586,-0.583c0.106,-0.126 0.299,-0.336 0.335,-0.375c0.707,-0.357 1.64,-0.929 2.067,-1.462c0.013,-0.017 0.036,-0.046 0.067,-0.086c-0.035,0.202 -0.067,0.404 -0.095,0.608c-0.666,4.805 0.355,9.927 2.728,14.221c0.318,0.576 0.848,1.943 1.436,2.858c0.367,0.571 0.786,0.986 1.17,1.171c0.498,0.239 1.096,0.03 1.335,-0.467c0.239,-0.497 0.03,-1.096 -0.467,-1.335c-0.061,-0.029 -0.104,-0.103 -0.164,-0.178c-0.138,-0.174 -0.272,-0.392 -0.402,-0.625c-0.475,-0.855 -0.891,-1.908 -1.157,-2.391c-1.167,-2.11 -1.977,-4.439 -2.382,-6.823c0.026,-0.064 0.046,-0.132 0.058,-0.203c0.331,-1.845 1.339,-3.49 2.986,-4.295c0.109,0.041 0.227,0.064 0.351,0.064c0.205,-0 0.752,-0.033 0.837,-0.039c0.201,0.082 0.362,0.27 0.519,0.415c0.206,0.19 0.404,0.356 0.583,0.469c0.111,0.156 0.494,0.676 0.783,0.82c1.214,0.607 2.276,0.944 3.709,0.944c1.391,0 2.694,-0.093 4.101,-0.093c0.296,0 0.629,-0.011 0.942,0.007c0.179,0.009 0.352,0.012 0.475,0.074c0.126,0.063 0.609,0.188 0.83,0.244c0.174,0.146 0.398,0.235 0.643,0.235c0.552,-0 1,-0.449 1,-1c-0,-0.048 -0.003,-0.096 -0.009,-0.146c0.04,-0.298 -0.055,-0.612 -0.284,-0.841c-0.333,-0.333 -0.754,-0.661 -1.119,-1.026c-0.233,-0.233 -0.39,-0.555 -0.563,-0.873c-0.265,-0.487 -0.545,-0.973 -0.921,-1.356c-0.449,-0.459 -1.045,-0.677 -1.572,-0.941c-0.272,-0.136 -0.459,-0.35 -0.669,-0.537c-0.247,-0.22 -0.508,-0.424 -0.822,-0.581c-0.563,-0.281 -1.188,-0.374 -1.835,-0.393c-0.651,-0.019 -1.332,0.072 -1.931,-0.127c-1.048,-0.349 -1.983,-0.688 -3.094,-0.132c-0.545,0.272 -1.01,0.729 -1.428,1.273c-0.41,0.533 -0.769,1.163 -1.202,1.648c-1.067,0.478 -1.955,1.202 -2.649,2.089c0.025,-0.622 0.08,-1.241 0.165,-1.855c0.225,-1.624 0.69,-3.145 1.298,-4.606c0.037,-0.022 0.073,-0.047 0.108,-0.075c1.927,-1.536 4.555,-2.568 6.814,-3.531c0.155,0.207 0.385,0.51 0.508,0.649c0.639,0.72 1.745,1.474 2.572,2.094c0.543,0.408 1.25,0.502 1.868,0.708c0.128,0.043 0.247,0.166 0.379,0.253c0.251,0.164 0.512,0.287 0.766,0.338c0.097,0.019 0.648,0.051 0.917,0.066c0.148,0.093 0.307,0.164 0.478,0.222c0.183,0.061 0.392,0.086 0.591,0.185c1.156,0.578 2.148,1.027 3.263,1.585c0.211,0.106 0.533,0.182 0.906,0.189c0.575,0.011 1.314,-0.124 1.628,-0.228c1.584,-0.528 3.015,-1.999 4.246,-2.82c0.249,-0.165 0.893,-0.762 1.041,-0.9c0.411,-0.125 0.71,-0.507 0.71,-0.957c-0,-0.488 -0.351,-0.895 -0.814,-0.983c-0.284,-0.261 -0.901,-0.82 -1.123,-0.968c-0.35,-0.233 -0.755,-0.343 -1.183,-0.402c-0.259,-0.036 -0.542,0.003 -0.76,-0.147c-0.45,-0.312 -0.743,-0.785 -1.081,-1.212c-0.517,-0.655 -1.101,-1.236 -1.968,-1.525c-0.591,-0.197 -1.202,-0.192 -1.798,-0.311c-1.267,-0.253 -2.449,-1.049 -3.728,-1.305c-1.287,-0.257 -2.646,0.153 -3.682,0.498c-0.284,0.095 -0.581,0.082 -0.874,0.103c-0.334,0.024 -0.665,0.068 -0.99,0.177c-0.732,0.244 -1.218,0.753 -1.614,1.37c-0.165,0.256 -0.314,0.53 -0.479,0.79c-0.148,0.235 -0.298,0.469 -0.555,0.597c-0.109,0.055 -0.205,0.127 -0.284,0.212c-1.347,0.573 -2.798,1.181 -4.164,1.894c0.045,-0.08 0.09,-0.161 0.135,-0.241c0.177,-0.149 0.303,-0.359 0.343,-0.599c1.356,-2.347 2.846,-4.649 4.002,-7.115c0.163,-0.347 0.332,-0.695 0.505,-1.044c1.095,-0.619 2.452,-0.895 3.728,-1.152Zm-5.901,18.455c0.036,0.028 0.071,0.057 0.106,0.087c0.222,0.187 0.395,0.419 0.561,0.502c0.171,0.085 0.325,0.207 0.459,0.363c0.092,0.107 0.24,0.336 0.302,0.436c0.878,0.429 1.66,0.679 2.706,0.679c0.963,0 1.884,-0.044 2.827,-0.072c-1.831,-1.067 -3.636,-1.874 -5.903,-1.96c-0.317,-0.012 -0.682,-0.034 -1.058,-0.035Zm8.465,1.735c-0.197,-0.367 -0.381,-0.754 -0.664,-1.043c-0.289,-0.295 -0.7,-0.383 -1.038,-0.552c-0.32,-0.16 -0.585,-0.365 -0.832,-0.585c-0.211,-0.188 -0.394,-0.401 -0.659,-0.533c-0.406,-0.203 -0.877,-0.187 -1.348,-0.187c-0.738,-0.001 -1.484,-0.001 -2.157,-0.225c-0.292,-0.097 -0.571,-0.209 -0.85,-0.28c-0.23,-0.058 -0.461,-0.088 -0.716,0.039c-0.276,0.138 -0.495,0.379 -0.703,0.652c0.562,-0.031 1.126,-0.003 1.598,0.015c2.853,0.108 5.03,1.259 7.369,2.699Zm-20.424,-5.136c-0.49,-0.008 -1.002,-0.005 -1.493,0.042c-0.55,0.053 -1.075,0.16 -1.497,0.393c-0.438,0.242 -0.741,0.626 -1.068,0.985c-0.419,0.459 -0.867,0.885 -1.514,1.106c-0.792,0.271 -1.63,0.315 -2.474,0.363c-0.048,0.002 -0.096,0.005 -0.144,0.008c0.105,0.034 0.222,0.035 0.343,0.037c0.278,0.002 0.571,-0.031 0.86,-0.053c0.563,-0.042 1.113,-0.035 1.586,0.122c0.175,0.059 0.387,-0.005 0.593,-0.014c0.348,-0.016 0.687,0.006 0.991,0.107c0.519,0.173 1.002,0.375 1.49,0.523c0.546,0.165 1.098,0.257 1.753,0.049c0.054,-0.05 0.446,-0.408 0.605,-0.524c0.154,-0.112 0.297,-0.335 0.453,-0.513c0.235,-0.269 0.485,-0.484 0.715,-0.599c0.378,-0.189 0.882,-0.445 1.218,-0.724c-0.002,-0.002 -0.005,-0.003 -0.007,-0.004c-0.772,-0.386 -1.572,-0.669 -2.296,-1.213c-0.039,-0.029 -0.077,-0.06 -0.114,-0.091Zm-1.252,-0.967c-0.077,-0.036 -0.15,-0.071 -0.203,-0.101c-0.287,-0.162 -0.483,-0.378 -0.59,-0.592c-0.103,-0.207 -0.263,-0.503 -0.455,-0.766c-0.087,-0.119 -0.266,-0.294 -0.297,-0.324c-0.367,-0.108 -0.741,0.107 -1.105,0.326c-0.597,0.359 -1.145,0.856 -1.564,1.191c-1.239,0.991 -2.141,2.046 -3.249,3.164c0.204,-0.017 0.408,-0.029 0.612,-0.041c0.753,-0.043 1.501,-0.069 2.207,-0.31c0.476,-0.163 0.791,-0.496 1.099,-0.834c0.4,-0.439 0.787,-0.891 1.324,-1.187c0.615,-0.339 1.407,-0.476 2.221,-0.526Zm31.209,-1.413c-1.087,-0.273 -2.152,-0.631 -3.237,-0.924c-1.2,-0.325 -2.463,-0.519 -3.62,-0.982c-0.923,-0.369 -1.636,-1.092 -2.59,-1.398c-1.08,-0.348 -2.386,-0.34 -3.504,-0.189c-0.214,0.028 -0.431,0.061 -0.647,0.102c0.006,0.006 0.011,0.012 0.016,0.018c0.562,0.633 1.549,1.276 2.276,1.821c0.167,0.125 0.374,0.166 0.576,0.216c0.246,0.062 0.493,0.117 0.724,0.195c0.214,0.071 0.436,0.199 0.653,0.348c0.078,0.052 0.213,0.139 0.269,0.174c0.216,0.011 0.928,0.049 1.095,0.089c0.244,0.058 0.397,0.17 0.486,0.252c0.049,0.015 0.241,0.073 0.353,0.106c0.178,0.051 0.359,0.114 0.538,0.203c1.133,0.567 2.108,1.01 3.197,1.553c0.115,-0.007 0.876,-0.05 1.072,-0.116c0.841,-0.28 1.619,-0.875 2.343,-1.468Zm1.629,-1.277c-0.155,-0.139 -0.296,-0.259 -0.388,-0.321c-0.217,-0.144 -0.504,-0.101 -0.771,-0.14c-0.43,-0.062 -0.842,-0.18 -1.201,-0.429c-0.511,-0.354 -0.904,-0.83 -1.282,-1.32c-0.353,-0.458 -0.663,-0.964 -1.262,-1.163c-0.511,-0.171 -1.042,-0.145 -1.557,-0.248c-1.267,-0.253 -2.45,-1.049 -3.729,-1.305c-0.932,-0.186 -1.906,0.184 -2.656,0.434c-0.324,0.108 -0.654,0.152 -0.988,0.176c-0.293,0.021 -0.591,0.009 -0.877,0.104c-0.232,0.077 -0.366,0.263 -0.497,0.454c-0.154,0.224 -0.288,0.47 -0.432,0.708c0.307,-0.067 0.62,-0.116 0.926,-0.158c1.259,-0.169 2.728,-0.162 3.944,0.229c0.977,0.313 1.711,1.044 2.655,1.422c1.122,0.448 2.347,0.63 3.51,0.944c1.324,0.358 2.617,0.819 3.961,1.092c0.15,-0.116 0.297,-0.223 0.442,-0.32c0.06,-0.04 0.128,-0.095 0.202,-0.159Zm-37.25,-11.221c0.266,0.62 0.535,1.273 0.872,1.777c0.604,0.907 1.479,1.825 2.205,2.551c0.276,0.276 0.454,0.823 0.594,1.174c0.219,0.547 0.852,1.161 1.391,1.364c0.139,0.005 0.769,0.04 1.017,0.164c0.406,0.203 1.133,0.469 1.847,0.551c0.357,0.04 0.713,0.052 0.987,-0.085c0.087,-0.043 0.205,-0.085 0.348,-0.115l-0.023,-0.061c-0.972,-0.713 -1.952,-1.291 -2.751,-2.318c-0.39,-0.502 -0.674,-1.108 -0.983,-1.692c-0.262,-0.497 -0.54,-0.979 -0.97,-1.323c-1.273,-1.018 -2.989,-1.238 -4.414,-1.926c-0.041,-0.02 -0.08,-0.04 -0.12,-0.061Zm-0.655,-1.749c0.014,0.014 0.028,0.027 0.042,0.04c0.359,0.332 0.724,0.655 1.167,0.869c1.491,0.72 3.273,0.982 4.604,2.046c0.537,0.43 0.903,1.017 1.231,1.637c0.281,0.532 0.532,1.088 0.888,1.545c0.504,0.649 1.089,1.104 1.696,1.533c0,-0.129 0.005,-0.261 0.011,-0.394c0.013,-0.277 0.058,-0.561 0.016,-0.801c-0.143,-0.11 -0.442,-0.35 -0.565,-0.535c-0.336,-0.504 -0.585,-0.898 -0.769,-1.45c-0.016,-0.049 -0.076,-0.072 -0.123,-0.111c-0.104,-0.084 -0.223,-0.162 -0.344,-0.237c-0.473,-0.292 -0.969,-0.565 -1.249,-0.845c-1.055,-1.056 -1.895,-2.292 -3.244,-2.741c-1.091,-0.364 -2.166,-0.259 -3.282,-0.538c-0.026,-0.007 -0.053,-0.013 -0.079,-0.018Zm44.903,-0.335c-1.592,0.228 -3.182,0.427 -4.793,0.13c-1.068,-0.196 -2.068,-0.602 -3.087,-0.951c-0.938,-0.321 -1.893,-0.592 -2.95,-0.55c-2.445,0.098 -4.683,1.508 -7.034,2.072l-0.007,0.002c-0.032,0.023 -0.065,0.046 -0.098,0.069c0.831,0.451 1.619,0.947 2.343,1.427c0.137,0.021 0.44,0.069 0.559,0.11c0.204,0.07 0.355,0.176 0.46,0.281c1.033,1.033 2.884,2.233 4.535,1.958c0.694,-0.116 1.356,-0.471 2.025,-0.826c0.839,-0.445 1.683,-0.897 2.557,-1.115c1.2,-0.3 2.061,-1.104 3.058,-1.602c0.16,-0.08 0.36,-0.132 0.587,-0.137c0.117,-0.002 0.34,0.021 0.45,0.034c0.406,-0.148 1.096,-0.663 1.395,-0.902Zm0.867,-1.129c-0.251,-0.082 -0.479,-0.169 -0.664,-0.259c-0.033,0 -0.231,0.004 -0.348,0.022c-0.227,0.034 -0.463,0.085 -0.696,0.122c-0.615,0.099 -1.207,0.082 -1.684,-0.157c-0.634,-0.317 -1.196,-0.854 -1.827,-1.064c-0.543,-0.181 -1.147,-0.354 -1.72,-0.517c-0.209,0.002 -0.652,-0.006 -0.834,-0.096c-0.344,-0.172 -0.733,-0.212 -1.108,-0.29c-0.391,-0.081 -0.774,-0.185 -1.129,-0.363c-0.263,-0.132 -0.551,-0.307 -0.859,-0.451c-0.249,-0.117 -0.515,-0.243 -0.801,-0.147c-1.644,0.548 -2.939,1.607 -4.22,2.705c-0.216,0.186 -0.433,0.373 -0.65,0.56c1.572,-0.596 3.143,-1.24 4.804,-1.306c1.186,-0.048 2.26,0.243 3.313,0.603c0.972,0.333 1.925,0.726 2.945,0.914c1.842,0.34 3.656,-0.016 5.478,-0.276Zm-43.877,-13.737c0.59,2.234 1.763,4.166 3.082,6.144c0.623,0.934 1.449,1.514 2.206,2.271c0.389,0.389 0.692,0.814 1.01,1.22c0.229,0.293 0.463,0.578 0.795,0.799c0.216,0.144 0.506,0.206 0.8,0.276c0.464,0.111 0.942,0.211 1.346,0.373c0.251,0.1 0.483,0.224 0.713,0.345c0.198,0.103 0.389,0.214 0.625,0.244c0.865,0.108 2.027,0.232 2.875,0.027c-2.007,-1.005 -3.994,-1.94 -5.477,-3.794c-0.625,-0.78 -1.031,-1.728 -1.466,-2.649c-0.389,-0.822 -0.799,-1.623 -1.48,-2.211c-1.214,-1.048 -2.601,-2.038 -4.074,-2.681c-0.314,-0.137 -0.634,-0.251 -0.955,-0.364Zm14.115,10.918l-0.227,-0.584c-0.431,-0.453 -0.735,-1.073 -0.952,-1.764c-0.26,-0.826 -0.396,-1.767 -0.636,-2.487c-0.037,-0.111 -0.13,-0.213 -0.216,-0.322c-0.179,-0.227 -0.371,-0.448 -0.506,-0.651c-0.098,-0.148 -0.234,-0.227 -0.359,-0.331c-0.186,-0.156 -0.37,-0.328 -0.541,-0.556c-0.141,-0.189 -0.266,-0.415 -0.389,-0.641c-0.068,-0.124 -0.102,-0.271 -0.205,-0.339c-0.89,-0.593 -2.059,-0.835 -3.061,-1.336c-1.932,-0.965 -3.866,-2.303 -5.741,-2.928c-0.122,-0.041 -0.3,-0.011 -0.488,0.01c-0.15,0.018 -0.303,0.043 -0.451,0.073c0.34,0.12 0.68,0.24 1.012,0.385c1.564,0.683 3.039,1.728 4.328,2.841c0.786,0.68 1.281,1.591 1.73,2.54c0.402,0.85 0.766,1.732 1.342,2.452c1.443,1.803 3.402,2.667 5.36,3.638Zm31.267,-10.845c-1.729,1.315 -3.566,2.527 -5.535,3.01c-1.777,0.436 -3.835,0.284 -5.756,0.48c-1.098,0.112 -2.151,0.341 -3.061,0.911c0.317,0.016 0.624,0.066 0.897,0.157c0.721,0.241 1.602,0.866 2.506,1.363c0.342,0.188 0.686,0.355 1.027,0.437c0.215,0.051 0.427,0.072 0.627,-0.008c1.957,-0.783 3.762,-1.839 5.609,-2.763c0.299,-0.149 0.581,-0.464 0.857,-0.777c0.382,-0.434 0.736,-0.888 1.027,-1.179c0.399,-0.399 0.839,-0.722 1.243,-1.065c0.205,-0.174 0.402,-0.351 0.559,-0.566Zm0.224,-1.426c-0.553,0.163 -1.108,0.243 -1.655,0.425c-1.865,0.622 -3.895,0.491 -5.779,1.119c-0.199,0.066 -1.167,0.128 -1.448,0.145c-0.128,0.082 -0.277,0.152 -0.441,0.207c-0.139,0.046 -0.293,0.084 -0.448,0.123c-0.078,0.019 -0.163,0.022 -0.221,0.06c-1.283,0.856 -3.031,1.369 -4.194,2.144c-0.251,0.168 -0.495,0.386 -0.719,0.633c0.991,-0.565 2.114,-0.815 3.289,-0.935c1.875,-0.191 3.884,-0.031 5.619,-0.457c2.16,-0.529 4.141,-1.992 5.997,-3.464Zm-37.788,-6.703c0.042,0.2 0.056,0.416 0.055,0.636c-0.001,0.186 -0.034,0.38 0.008,0.547c0.222,0.887 0.764,2.2 1.271,3.01c0.105,0.033 0.322,0.099 0.451,0.131c0.255,0.064 0.486,0.136 0.644,0.215c0.274,0.137 0.466,0.347 0.594,0.606c0.021,0.042 0.044,0.101 0.065,0.16c0.875,0.45 1.743,0.948 2.604,1.378c0.686,0.343 1.31,0.958 1.844,1.492c0.146,0.146 0.31,0.388 0.39,0.509c0.912,0.218 1.87,0.323 2.826,0.371c-3.146,-1.654 -5.204,-4.486 -7.905,-6.887c-0.882,-0.783 -1.769,-1.524 -2.784,-2.129c-0.02,-0.012 -0.041,-0.025 -0.063,-0.039Zm11.09,8.106c-0.187,-0.258 -0.574,-0.554 -0.774,-0.753c-0.808,-0.808 -1.429,-2.558 -1.958,-3.616c-0.656,-1.312 -1.785,-2.305 -2.923,-3.064c-0.592,-0.395 -1.008,-0.929 -1.662,-1.168c-0.123,0.012 -0.697,0.065 -0.962,0.012c-0.841,-0.168 -1.97,-0.361 -2.707,-0.71c-0.017,0.003 -0.046,0.007 -0.083,0.013c0.212,0.131 0.413,0.276 0.554,0.36c1.069,0.637 2.007,1.415 2.936,2.241c2.603,2.313 4.565,5.07 7.579,6.685Zm29.133,-15.34c-0.081,0.021 -0.161,0.042 -0.241,0.064c-1.72,1.05 -3.343,2.309 -4.826,3.654c-0.97,0.88 -1.838,2.001 -2.926,2.735c-0.494,0.334 -1.028,0.485 -1.579,0.582c-0.47,0.084 -0.952,0.126 -1.422,0.252c-0.669,0.179 -1.162,0.559 -1.71,0.962c-0.774,0.568 -1.577,1.032 -2.427,1.427c0.447,0.097 0.928,0.132 1.347,0.272c0.195,0.065 0.33,0.155 0.43,0.251c0.152,-0.022 0.306,-0.05 0.456,-0.07c0.48,-0.064 0.932,-0.029 1.296,0.153c0.063,0.031 0.179,0.082 0.213,0.096c0.802,-0.164 1.94,-0.654 2.561,-1.12c0.512,-0.384 0.916,-0.985 1.444,-1.337c1.002,-0.668 2.255,-1.52 3.036,-2.496c0.163,-0.204 0.192,-0.458 0.265,-0.692c0.107,-0.341 0.242,-0.668 0.462,-0.961c0.465,-0.621 1.144,-1.158 1.677,-1.691c0.351,-0.352 0.725,-0.657 1.074,-0.974c0.348,-0.318 0.678,-0.642 0.87,-1.107Zm-3.128,0.818c-0.227,0.022 -0.463,0.013 -0.701,-0.01c-0.209,-0.02 -0.421,-0.081 -0.614,-0.033c-0.573,0.143 -1.287,0.361 -1.779,0.59c-0.14,0.065 -0.245,0.231 -0.369,0.368c-0.19,0.209 -0.382,0.408 -0.571,0.55c-0.451,0.338 -1.044,0.641 -1.602,0.966c-0.382,0.222 -0.757,0.439 -0.962,0.746c-0.221,0.331 -0.509,0.932 -0.834,1.351c-0.237,0.306 -0.503,0.537 -0.762,0.666c-0.427,0.214 -1.054,0.216 -1.72,0.067c-0.34,-0.076 -0.932,-0.19 -1.059,-0.214c-1.185,0.618 -1.32,1.335 -1.901,2.496c-0.142,0.285 -0.315,0.552 -0.499,0.813c1.149,-0.45 2.204,-0.995 3.205,-1.73c0.651,-0.479 1.248,-0.91 2.043,-1.123c0.498,-0.134 1.009,-0.182 1.506,-0.27c0.415,-0.074 0.822,-0.175 1.194,-0.426c1.05,-0.709 1.879,-1.799 2.814,-2.648c0.83,-0.753 1.703,-1.479 2.611,-2.159Zm-22.891,4.241c0.021,-0.07 0.049,-0.137 0.085,-0.2c-0.028,0.044 -0.054,0.098 -0.076,0.163l-0.009,0.037c-0.011,0.036 -0.02,0.073 -0.027,0.111l0.027,-0.111Zm-6.336,-12.624c0.02,0.053 0.042,0.105 0.064,0.158c0.158,0.367 0.355,0.723 0.496,1.044c0.422,0.956 0.759,1.951 1.164,2.915c0.712,1.699 1.199,3.769 2.035,5.557c0.568,1.215 1.299,2.298 2.415,3c0.02,0.009 0.039,0.018 0.059,0.027c-0.05,-0.348 -0.119,-0.843 -0.193,-1.052c-0.432,-1.215 -0.516,-2.766 -0.734,-4.015c-0.202,-1.159 -0.534,-2.074 -1.135,-3.056c-0.259,-0.423 -0.722,-0.71 -1.164,-1.019c-0.673,-0.472 -1.325,-0.967 -1.72,-1.611c-0.322,-0.526 -0.587,-1.058 -0.906,-1.509c-0.115,-0.163 -0.238,-0.312 -0.381,-0.439Zm-0.539,1.209c-0.012,0.223 -0.04,0.438 -0.097,0.632c-0.145,0.498 -0.103,1.046 -0.072,1.599c0.044,0.758 0.087,1.523 -0.06,2.236c-0.105,0.51 -0.328,1.125 -0.492,1.735c-0.107,0.4 -0.216,0.794 -0.122,1.118c0.159,0.548 0.155,1.167 0.308,1.691c0.015,0.051 0.069,0.072 0.106,0.108c0.065,0.064 0.134,0.126 0.201,0.189c0.251,0.238 0.476,0.5 0.621,0.82c0.029,0.063 0.133,0.213 0.185,0.287c0.555,0.162 1.08,-0.004 1.603,-0.067c0.633,-0.075 1.262,-0.077 1.91,0.167c0.091,0.035 0.19,0.063 0.293,0.087c-0.382,-0.525 -0.707,-1.103 -0.992,-1.714c-0.841,-1.8 -1.334,-3.883 -2.052,-5.593c-0.402,-0.959 -0.737,-1.948 -1.156,-2.899c-0.056,-0.127 -0.119,-0.26 -0.184,-0.396Zm19.066,-8.255c-0.712,2.703 -0.799,5.63 -1.375,8.349c-0.279,1.321 -1.03,2.355 -1.444,3.618c-0.209,0.64 -0.171,1.269 -0.236,1.929c-0.154,1.578 -0.929,2.93 -1.703,4.273c-0.109,0.189 -0.216,0.378 -0.318,0.57c0.2,-0.2 0.48,-0.343 0.814,-0.429c0.095,-0.025 0.264,-0.067 0.362,-0.091c0.156,-0.34 0.345,-0.815 0.591,-1.061c0.586,-0.587 1.341,-1.229 1.991,-1.692c0.21,-0.15 0.336,-0.389 0.496,-0.597c0.214,-0.278 0.451,-0.532 0.741,-0.726c0.329,-0.219 0.619,-0.321 0.841,-0.655c0.056,-0.083 0.039,-0.168 0.038,-0.249c-0,-0.121 -0.005,-0.242 -0.004,-0.366c0.004,-0.266 0.034,-0.538 0.129,-0.824c0.294,-0.88 0.661,-1.666 0.798,-2.621c0.311,-2.174 -0.804,-4.595 -1.45,-6.533c-0.15,-0.45 -0.178,-0.94 -0.161,-1.435c0.015,-0.44 0.102,-0.887 -0.026,-1.268c-0.02,-0.062 -0.049,-0.126 -0.084,-0.192Zm-1.278,1.139c-0.562,0.631 -1.086,1.309 -1.585,2.14c-1.292,2.153 -2.132,4.236 -2.891,6.513c-0.2,0.599 -0.602,1.226 -0.894,1.809c-0.119,0.24 -0.042,0.584 -0.031,0.913c0.015,0.437 0.008,0.863 -0.079,1.212c-0.346,1.383 0.069,2.963 0.794,4.05c0.05,0.075 0.096,0.158 0.139,0.248c0.066,-0.119 0.133,-0.237 0.201,-0.355c0.703,-1.22 1.434,-2.437 1.574,-3.871c0.072,-0.734 0.048,-1.431 0.281,-2.142c0.402,-1.229 1.144,-2.229 1.416,-3.514c0.481,-2.273 0.63,-4.69 1.075,-7.003Z"/></g></svg>