<?xml version="1.0" encoding="iso-8859-1"?>
<!-- Generator: Adobe Illustrator 19.0.0, SVG Export Plug-In . SVG Version: 6.00 Build 0)  -->
<svg version="1.1" id="Layer_1" xmlns="http://www.w3.org/2000/svg" xmlns:xlink="http://www.w3.org/1999/xlink" x="0px" y="0px"
	 viewBox="0 0 512 512" style="enable-background:new 0 0 512 512;" xml:space="preserve">
<g>
	<g>
		<g>
			<path d="M331.086,136.83c0,0,0.001,0,0.002,0c8.5,0,17.371-3.996,24.334-10.962c6.163-6.163,11.222-17.71,14.38-26.313
				c1.653-4.503,3.066-9.011,3.979-12.691c1.055-4.258,2.369-9.557-1.416-13.348c-1.148-1.148-3.202-2.517-6.467-2.517
				c-7.403,0-35.681,9.25-45.887,19.455c-5.657,5.658-9.414,12.675-10.579,19.759c-1.307,7.944,0.822,15.376,5.839,20.393
				C319.283,134.62,324.9,136.83,331.086,136.83z M325.239,112.814c0.616-3.75,2.841-7.771,6.101-11.031
				c4.358-4.358,16.172-9.29,24.966-12.21c-2.92,8.794-7.853,20.609-12.212,24.968c-3.866,3.867-8.85,6.269-13.008,6.269
				c-1.35,0-3.225-0.266-4.488-1.529C324.789,117.47,324.97,114.452,325.239,112.814z"/>
			<path d="M295.069,218.384c8.502,0,17.374-3.995,24.339-10.962c6.162-6.162,11.221-17.71,14.378-26.312
				c1.654-4.504,3.066-9.011,3.978-12.691c1.055-4.259,2.37-9.558-1.417-13.349c-1.148-1.148-3.202-2.516-6.467-2.516
				c-7.404,0-35.681,9.251-45.886,19.456c-12.585,12.587-14.668,30.224-4.742,40.151
				C283.266,216.174,288.882,218.384,295.069,218.384z M295.324,183.337c4.358-4.358,16.172-9.29,24.966-12.21
				c-2.92,8.794-7.852,20.609-12.211,24.967c-3.866,3.867-8.852,6.269-13.01,6.269c-1.35,0-3.223-0.265-4.487-1.529
				C287.573,197.824,288.96,189.702,295.324,183.337z"/>
			<path d="M141.261,163.721c-3.263,0-5.315,1.367-6.467,2.517c-3.786,3.788-2.471,9.089-1.416,13.347
				c0.912,3.68,2.325,8.188,3.978,12.691c3.158,8.602,8.216,20.148,14.38,26.313c6.966,6.966,15.838,10.961,24.338,10.961
				c6.186,0,11.802-2.21,15.815-6.221c9.928-9.929,7.845-27.566-4.741-40.152C176.944,172.971,148.665,163.721,141.261,163.721z
				 M180.56,212.001c-1.264,1.263-3.138,1.529-4.487,1.529c-4.158,0-9.143-2.403-13.011-6.269
				c-4.359-4.359-9.291-16.175-12.212-24.968c8.794,2.92,20.609,7.852,24.968,12.212
				C182.182,200.868,183.571,208.991,180.56,212.001z"/>
			<path d="M401.838,221.757c15.716-22.553,23.965-48.121,23.965-74.674C425.803,65.981,347.973,0,252.308,0
				S78.813,65.981,78.813,147.082c0,69.791,57.639,128.382,134.68,143.368v68.382l-27.455-22.378
				c1.514-4.834,2.343-9.932,2.343-15.207c0-30.361-26.893-55.062-59.948-55.062c-33.054,0-59.947,24.7-59.947,55.062
				c0,30.361,26.893,55.062,59.947,55.062c8.26,0,16.134-1.542,23.301-4.33l61.757,50.335v42.554H183.53
				c-10.135,0-18.381,8.246-18.381,18.381v10.371c0,10.135,8.246,18.381,18.381,18.381h137.555c10.135,0,18.382-8.246,18.382-18.381
				v-10.371c0-10.135-8.247-18.381-18.382-18.381h-29.959v-86.512l68.267-53.791c7.401,3.007,15.574,4.693,24.174,4.693
				c33.054,0,59.947-24.7,59.947-55.062C443.514,249.685,425.984,228.872,401.838,221.757z M94.832,147.082
				c0-72.268,70.643-131.062,157.476-131.062s157.476,58.794,157.476,131.062c0,25.813-8.982,50.64-25.976,72.057
				c-0.08-0.001-0.159-0.005-0.24-0.005c-29.048,0-53.33,19.077-58.791,44.305c-22.255,9.621-47.228,14.706-72.468,14.706
				C165.475,278.145,94.832,219.35,94.832,147.082z M325.679,288.483l-34.552,27.225v-25.279c11.337-2.197,22.396-5.345,32.97-9.411
				C324.44,283.563,324.968,286.057,325.679,288.483z M128.433,360.287c-24.222,0-43.927-17.514-43.927-39.042
				c0-21.527,19.705-39.042,43.927-39.042c24.223,0,43.928,17.514,43.928,39.042C172.361,342.773,152.656,360.287,128.433,360.287z
				 M321.085,480.885c1.281,0,2.362,1.082,2.362,2.361v10.371c0,1.281-1.082,2.361-2.362,2.361H183.531
				c-1.279,0-2.361-1.082-2.361-2.361v-10.371c0-1.279,1.082-2.361,2.361-2.361H321.085z M275.107,370.582v94.283h-45.595v-50.163
				l-62.759-51.152c4.635-3.549,8.671-7.73,11.97-12.393l50.789,41.396v-99.661c7.462,0.834,15.07,1.271,22.797,1.271
				c7.638,0,15.256-0.442,22.799-1.288v55.85l57.623-45.403c3.219,4.721,7.194,8.961,11.769,12.582L275.107,370.582z
				 M383.567,313.236c-24.223,0-43.928-17.514-43.928-39.042c0-21.527,19.705-39.042,43.928-39.042
				c24.222,0,43.927,17.514,43.927,39.042C427.494,295.721,407.789,313.236,383.567,313.236z"/>
			<path d="M226.675,53.63c-2.265-3.759-5.085-8.436-10.441-8.436c-5.357,0-8.175,4.677-10.441,8.435
				c-1.958,3.248-4.146,7.433-6.161,11.787c-3.849,8.315-8.438,20.057-8.438,28.773c0,17.8,10.999,31.745,25.04,31.745
				c14.04,0,25.039-13.944,25.039-31.745c0-8.716-4.589-20.458-8.437-28.773C230.82,61.063,228.633,56.877,226.675,53.63z
				 M216.235,109.914c-4.258,0-9.02-6.725-9.02-15.725c0-6.165,4.867-18.006,9.02-26.288c4.153,8.283,9.019,20.124,9.019,26.288
				C225.254,103.189,220.492,109.914,216.235,109.914z"/>
		</g>
	</g>
</g>
<g>
</g>
<g>
</g>
<g>
</g>
<g>
</g>
<g>
</g>
<g>
</g>
<g>
</g>
<g>
</g>
<g>
</g>
<g>
</g>
<g>
</g>
<g>
</g>
<g>
</g>
<g>
</g>
<g>
</g>
</svg>
